<svg width="77" height="92" viewBox="0 0 77 92" fill="none" xmlns="http://www.w3.org/2000/svg">
<g clip-path="url(#clip0_2336_2274)">
<path fill-rule="evenodd" clip-rule="evenodd" d="M64.5573 71.6892V63.0143L72.3667 58.2947V66.9721L64.5573 71.6917V71.6892ZM40.2877 77.6793L49.0548 72.3815V81.0589L40.2877 86.3567V77.6793ZM4.26134 58.2947L12.073 63.0143V71.6892L4.26134 66.9696V58.2922V58.2947ZM14.0432 19.116L22.6372 24.3071L14.8279 29.0267L6.23383 23.8331L14.0432 19.1135V19.116ZM38.3152 4.45099L46.9092 9.64454L38.1421 14.9423L29.548 9.74876L38.3152 4.45099ZM61.6247 29.1334L54.4459 24.7934L63.2131 19.4957L70.3918 23.8356L61.6223 29.1334H61.6247ZM64.5573 48.0763L72.3667 43.3567V53.5229L64.5573 58.2426V48.0763ZM40.2877 62.7413V72.91L49.0548 67.6123V57.4435L40.2877 62.7413ZM27.5708 72.3815L36.3403 77.6793V86.3567L27.5708 81.0564V72.379V72.3815ZM23.6258 69.9969V78.6743L16.018 74.0788V65.4014L23.6258 69.9994V69.9969ZM16.018 50.4609L23.6258 55.0589V65.2252L16.018 60.6272V50.4584V50.4609ZM4.26134 43.3567L12.073 48.0763V58.2426L4.26134 53.5229V43.3567ZM34.9961 31.7785L26.5846 26.6966L18.7752 31.4163L27.1868 36.5006L34.9961 31.781V31.7785ZM50.0719 36.116L57.6797 31.5205L50.501 27.183L42.8932 31.7785L50.0719 36.116ZM64.5573 32.92V43.3046L72.3667 38.585V28.2004L64.5573 32.92ZM53.0021 39.9026L60.61 35.3046V45.6892L53.0021 50.2872V39.9026ZM40.2877 57.9721V47.5875L49.0548 42.2897V52.6743L40.2877 57.9721ZM36.3403 62.7413L27.5708 57.4435V67.6123L36.3403 72.9125V62.7438V62.7413ZM27.5708 42.2872L36.3403 47.5875V57.9721L27.5708 52.6718V42.2872ZM38.3152 43.2202L31.1365 38.8828L38.9458 34.1631L46.1245 38.5006L38.3152 43.2202ZM12.0707 43.3046V32.92L4.25897 28.2004V38.585L12.0707 43.3046ZM16.018 35.3046L23.6258 39.9001V50.2847L16.018 45.6867V35.3021V35.3046ZM59.2681 17.111L50.8566 12.0267L42.0871 17.3244L50.4986 22.4088L59.2657 17.111H59.2681ZM38.1397 19.7115L46.5513 24.7959L38.9434 29.3939L30.5319 24.3096L38.1374 19.7115H38.1397ZM25.5983 12.1334L17.9905 16.7314L26.5846 21.9249L34.1924 17.3269L25.5983 12.1359V12.1334ZM60.61 65.3989V74.0763L53.0021 78.6743V69.9969L60.61 65.3989ZM53.0021 65.2277V55.0589L60.61 50.4609V60.6297L53.0021 65.2277ZM76.314 23.8356C76.314 23.0986 75.937 22.4163 75.3278 22.0465L52.1866 8.06141C51.9946 7.88772 51.7788 7.75868 51.5441 7.67184L39.3014 0.277295C38.6921 -0.0924317 37.9382 -0.0924317 37.3289 0.277295L1.30024 22.0465C0.690949 22.4163 0.313995 23.0986 0.313995 23.8356C0.313995 23.9696 0.340074 24.0986 0.363782 24.2301C0.340074 24.3592 0.313995 24.4882 0.313995 24.6247V68.1656C0.313995 68.9026 0.690949 69.585 1.30024 69.9547L37.3266 91.7239C37.6324 91.91 37.9738 92.0019 38.3128 92.0019C38.6518 92.0019 38.9956 91.91 39.2991 91.7239L75.3278 69.9547C75.937 69.5875 76.314 68.9051 76.314 68.1656V24.6222C76.314 24.4882 76.2879 24.3567 76.2642 24.2277C76.2879 24.0986 76.314 23.9696 76.314 23.8331V23.8356Z" fill="url(#paint0_linear_2336_2274)"/>
</g>
<defs>
<linearGradient id="paint0_linear_2336_2274" x1="76.1338" y1="17.2401" x2="-1.86172" y2="71.3799" gradientUnits="userSpaceOnUse">
<stop stop-color="#FF1CBF"/>
<stop offset="1" stop-color="#00E5FF"/>
</linearGradient>
<clipPath id="clip0_2336_2274">
<rect width="76" height="92" fill="white" transform="translate(0.313995)"/>
</clipPath>
</defs>
</svg>
